<svg class="svg-icon" style="width: 1em; height: 1em;vertical-align: middle;fill: currentColor;overflow: hidden;" viewBox="0 0 1024 1024" version="1.1" xmlns="http://www.w3.org/2000/svg"><path d="M735.8 763.7h-130c-62.2 0-112.9-50.6-112.9-112.9v-52.3c0-62.2 50.6-112.9 112.9-112.9h130c62.2 0 112.9 50.6 112.9 112.9v52.3c0 62.3-50.7 112.9-112.9 112.9z m-130-216.2c-28.1 0-51 22.9-51 51v52.3c0 28.1 22.9 51 51 51h130c28.1 0 51-22.9 51-51v-52.3c0-28.1-22.9-51-51-51h-130z" fill="#262626" /><path d="M636.9 849.9H317.2c-34 0-61.9-27.8-61.9-61.9V358.1c0-34 27.8-61.9 61.9-61.9h319.7c34 0 61.9 27.8 61.9 61.9V788c0 34.1-27.8 61.9-61.9 61.9z" fill="#F4BE67" /><path d="M636.9 875.7H317.2c-48.3 0-87.7-39.3-87.7-87.7V358.1c0-48.3 39.3-87.7 87.7-87.7h319.7c48.3 0 87.7 39.3 87.7 87.7V788c0 48.4-39.3 87.7-87.7 87.7zM317.2 322c-19.9 0-36.1 16.2-36.1 36.1V788c0 19.9 16.2 36.1 36.1 36.1h319.7c19.9 0 36.1-16.2 36.1-36.1V358.1c0-19.9-16.2-36.1-36.1-36.1H317.2z" fill="#262626" /><path d="M378 705.4h-41.9c-1.2 0-2.2-1-2.2-2.3V499.7c0-1.2 1-2.3 2.2-2.3H378c1.2 0 2.3 1 2.3 2.3v203.5c0 1.2-1 2.2-2.3 2.2zM500.9 705.4H459c-1.2 0-2.3-1-2.3-2.3V499.7c0-1.2 1-2.3 2.3-2.3h41.9c1.2 0 2.3 1 2.3 2.3v203.5c0 1.2-1 2.2-2.3 2.2zM623.8 705.4h-41.9c-1.2 0-2.3-1-2.3-2.3V499.7c0-1.2 1-2.3 2.3-2.3h41.9c1.2 0 2.3 1 2.3 2.3v203.5c0 1.2-1 2.2-2.3 2.2z" fill="#EAA35E" /><path d="M801 361.4c0-49.1-39.8-88.9-88.9-88.9-25.5 0-48.1 8.7-64.3 25.9-6.1-6.5-26.6-86.8-113.4-66.5-7 1.6-14.2 1-20.9 2.6-24.4-39.3-67.9-65.6-117.6-65.6-71.8 0-130.8 54.6-137.8 124.6-5.4-2.3-11.3-3.6-17.5-3.6-24.6 0-44.7 20.1-44.7 44.7v195c0 24.6 20.1 44.7 44.7 44.7s44.7-20.1 44.7-44.7v-79.3h0.2c1.3 23.5 20.8 42.5 44.7 42.5s43.3-18.9 44.7-42.5h89.6c5.6 20.3 24 35.3 46.1 35.3 21.5 0 39.6-14.3 45.6-33.9 13.5 25.5 40.2 43 70.9 43 31.2 0 58.4-18.2 71.6-44.4H715v-0.1c47.7-1.6 86-40.7 86-88.8z" fill="#FFFFFF" /><path d="M240.6 594.9c-36 0-65.3-29.3-65.3-65.3v-195c0-36 29.3-65.3 65.3-65.3h0.7c17.1-70.4 80-121 154.5-121 50.8 0 97.6 23.8 127.6 64.3 2.4-0.2 4.6-0.3 6.2-0.7 54.4-12.7 96.3 5.8 124.9 55.1 16.6-9.8 36.3-15 57.6-15 60.4 0 109.5 49.1 109.5 109.5 0 58.5-45.2 106-103.3 109.2-1.1 0.2-2.2 0.3-3.3 0.3h-4.5c-18.6 27.7-49.5 44.4-83.4 44.4-26.3 0-51-10.2-69.4-27.9-12.4 11.8-29 18.8-47.1 18.8-25.1 0-47.9-13.9-59.8-35.3h-59.4c-9.4 24.9-33.3 42.5-61.2 42.5-8.6 0-16.8-1.7-24.3-4.7v20.9c0 35.9-29.3 65.2-65.3 65.2z m0-284.4c-13.3 0-24 10.8-24 24v195c0 13.3 10.8 24 24 24 13.3 0 24-10.8 24-24v-79.3c0-11.4 9.2-20.6 20.6-20.6 10.9 0 20.2 8.6 20.8 19.5 0.7 12.9 11.3 23 24.1 23s23.3-10.1 24.1-23c0.6-10.9 9.6-19.5 20.6-19.5h89.6c9.3 0 17.4 6.2 19.9 15.2 3.3 11.9 14 20.2 26.2 20.2 11.9 0 22.3-7.8 25.9-19.3 2.5-8 9.5-13.7 17.8-14.4 8.3-0.8 16.3 3.5 20.1 10.9 10.4 19.7 30.6 32 52.6 32 22.5 0 42.9-12.7 53.2-33.1 3.5-7 10.6-11.4 18.4-11.4h13.9c0.6-0.1 1.2-0.1 1.8-0.1 37-1.2 66.1-31.1 66.1-68.1 0-37.6-30.6-68.2-68.2-68.2-20.3 0-37.4 6.7-49.3 19.4-3.9 4.2-9.5 6.8-15.1 6.5-5.7 0-11.2-2.4-15-6.6-3.1-3.3-4.8-7-7.5-12.6-14.9-31.8-35.6-59.7-86.1-47.9-5.1 1.2-9.8 1.5-13.9 1.8-2.7 0.2-5.2 0.4-6.9 0.8-8.6 2.1-17.7-1.6-22.4-9.2-21.7-35-59.1-55.8-100.1-55.8-60.8 0-111.2 45.6-117.3 106-0.7 6.5-4.4 12.4-10 15.7-5.7 3.3-12.6 3.8-18.6 1.2-2.9-1.4-6.1-2.1-9.3-2.1z" fill="#262626" /><path d="M352.9 751.3m-15.2 0a15.2 15.2 0 1 0 30.4 0 15.2 15.2 0 1 0-30.4 0Z" fill="#F7D5A4" /><path d="M586.5 734.5m-15.2 0a15.2 15.2 0 1 0 30.4 0 15.2 15.2 0 1 0-30.4 0Z" fill="#F7D5A4" /><path d="M480 751.3m-15.2 0a15.2 15.2 0 1 0 30.4 0 15.2 15.2 0 1 0-30.4 0Z" fill="#F7D5A4" /><path d="M535.3 614.7m-15.2 0a15.2 15.2 0 1 0 30.4 0 15.2 15.2 0 1 0-30.4 0Z" fill="#F7D5A4" /><path d="M387.176197 634.353299a9.5 9.5 0 1 0 16.782693-8.907367 9.5 9.5 0 1 0-16.782693 8.907367Z" fill="#F7D5A4" /><path d="M424.569562 547.767487a6.7 6.7 0 1 0 11.836216-6.282037 6.7 6.7 0 1 0-11.836216 6.282037Z" fill="#F7D5A4" /><path d="M524.241715 554.639061a8.1 8.1 0 1 0 14.309455-7.594702 8.1 8.1 0 1 0-14.309455 7.594702Z" fill="#F7D5A4" /><path d="M642.652289 578.111536a8.1 8.1 0 1 0 14.309454-7.594702 8.1 8.1 0 1 0-14.309454 7.594702Z" fill="#F7D5A4" /><path d="M305.449238 628.515283a8.1 8.1 0 1 0 14.309455-7.594703 8.1 8.1 0 1 0-14.309455 7.594703Z" fill="#F7D5A4" /></svg>